P2
# /home/quandy/Downloads/pgm_creator/map03.pgm
50 25
3
0   0   0   0   0   0   0   0   0   0   0   0   0   0   0   0   0   0   0   0   0   0   0   0   0   0   0   0   0   0   0   0   0   0   0   0   0   0   0   0   0   0   0   0   0   0   0   0   0   0   
0   0   0   0   0   0   0   0   0   0   0   0   0   0   0   0   0   0   0   0   0   0   0   0   0   0   0   0   0   0   0   0   0   0   0   0   0   0   0   0   0   0   0   0   0   0   0   0   0   0   
0   0   0   0   0   0   0   0   0   0   0   0   0   0   0   0   0   0   0   0   0   0   0   0   0   0   0   0   0   0   0   0   0   0   0   0   0   0   0   0   0   0   0   0   0   0   0   0   0   0   
0   0   0   0   0   0   0   0   0   0   0   0   0   0   0   0   0   0   0   0   0   0   0   0   0   0   0   0   0   0   0   0   0   0   0   0   0   0   0   0   0   0   0   0   0   0   0   0   0   0   
0   0   0   0   0   0   0   0   0   0   0   0   0   0   0   0   0   0   0   0   0   0   0   0   0   0   0   0   0   0   0   0   0   0   0   0   0   0   0   0   0   0   0   0   0   0   0   0   0   0   
0   0   0   0   0   0   0   0   3   3   3   3   3   3   0   0   0   0   0   0   0   0   0   0   0   0   0   0   0   0   0   0   0   0   0   0   0   0   0   0   0   0   0   0   0   0   0   0   0   0   
0   0   0   0   0   0   0   0   3   3   3   3   3   3   0   0   0   0   0   0   0   0   0   0   0   0   0   0   0   0   0   0   0   0   0   0   0   0   0   0   0   0   0   0   0   0   0   0   0   0   
0   0   0   0   0   0   0   0   3   3   3   3   3   3   0   0   0   0   0   0   0   0   0   0   0   0   0   0   0   0   0   0   0   0   0   0   0   0   0   0   0   0   0   0   0   0   0   0   0   0   
0   0   0   0   0   0   0   0   3   3   3   3   3   3   0   0   0   0   0   0   0   0   0   0   0   0   0   0   0   3   3   3   3   3   3   3   3   0   0   0   0   0   0   0   0   0   0   0   0   0   
0   0   0   0   0   0   0   0   3   3   3   3   3   3   0   0   0   0   0   0   0   0   0   0   0   0   0   0   0   3   3   3   3   3   3   3   3   0   0   0   0   0   0   0   0   0   0   0   0   0   
0   0   0   0   0   0   0   0   3   3   3   3   3   3   0   0   0   0   0   0   0   0   0   0   0   0   0   0   0   3   3   3   3   3   3   3   3   0   0   0   0   0   0   0   0   0   0   0   0   0   
0   0   0   0   0   0   0   0   3   3   3   3   3   3   0   0   0   0   0   0   0   0   0   0   0   0   0   0   0   3   3   3   3   3   3   3   3   0   0   0   0   0   0   0   0   0   0   0   0   0   
0   0   0   0   0   0   0   0   3   3   3   3   3   3   0   0   0   0   0   0   0   0   0   0   0   0   0   0   0   3   3   3   3   3   3   3   3   0   0   0   0   0   0   0   0   0   0   0   0   0   
0   0   0   0   0   0   0   0   3   3   3   3   3   3   0   0   0   0   0   0   0   0   0   0   0   0   0   0   0   3   3   3   3   3   3   3   3   0   0   0   0   0   0   0   0   0   0   0   0   0   
0   0   0   0   0   0   0   0   3   3   3   3   3   3   0   0   0   0   0   0   0   0   0   0   0   0   0   0   0   3   3   3   3   3   3   3   3   0   0   0   0   0   0   0   0   0   0   0   0   0   
0   0   0   0   0   0   0   0   3   3   3   3   3   3   0   0   0   0   0   0   0   0   0   0   0   0   0   0   0   3   3   3   3   3   3   3   3   0   0   0   0   0   0   0   0   0   0   0   0   0   
0   0   0   0   0   0   0   0   3   3   3   3   3   3   0   0   0   0   0   0   0   0   0   0   0   0   0   0   3   3   3   3   3   3   3   3   3   0   0   0   0   0   0   0   0   0   0   0   0   0   
0   0   0   0   0   0   0   0   0   0   0   0   0   0   0   0   0   0   0   0   0   0   0   0   0   0   0   0   3   3   3   3   3   3   3   3   3   0   0   0   0   0   0   0   0   0   0   0   0   0   
0   0   0   0   0   0   0   0   0   0   0   0   0   0   0   0   0   0   0   0   0   0   0   0   0   0   0   0   3   3   3   3   3   3   3   3   3   0   0   0   0   0   0   0   0   0   0   0   0   0   
0   0   0   0   0   0   0   0   0   0   0   0   0   0   0   0   0   0   0   0   0   0   0   0   0   0   0   0   3   3   3   3   3   3   3   3   3   0   0   0   0   0   0   0   0   0   0   0   0   0   
0   0   0   0   0   0   0   0   0   0   0   0   0   0   0   0   0   0   0   0   0   0   0   0   0   0   0   0   3   3   3   3   3   3   3   3   3   0   0   0   0   0   0   0   0   0   0   0   0   0   
0   0   0   0   0   0   0   0   0   0   0   0   0   0   0   0   0   0   0   0   0   0   0   0   0   0   0   0   3   3   3   3   3   3   3   3   3   0   0   0   0   0   0   0   0   0   0   0   0   0   
0   0   0   0   0   0   0   0   0   0   0   0   0   0   0   0   0   0   0   0   0   0   0   0   0   0   0   0   3   3   3   3   3   3   3   3   3   0   0   0   0   0   0   0   0   0   0   0   0   0   
0   0   0   0   0   0   0   0   0   0   0   0   0   0   0   0   0   0   0   0   0   0   0   0   0   0   0   0   0   0   0   0   0   0   0   0   0   0   0   0   0   0   0   0   0   0   0   0   0   0   
0   0   0   0   0   0   0   0   0   0   0   0   0   0   0   0   0   0   0   0   0   0   0   0   0   0   0   0   0   0   0   0   0   0   0   0   0   0   0   0   0   0   0   0   0   0   0   0   0   0   

# 0: Fluid
# 3: Wall
