P2
# /home/quan/workspace/robot/github/ros2_ws/src/ros2_tutorials/nav2_demos/images/map04
20 30
3
0   0   0   0   0   0   0   0   0   0   0   0   0   0   0   0   0   0   0   0   
0   0   0   0   0   0   0   0   0   0   0   0   0   0   0   0   0   0   0   0   
0   0   0   0   0   0   0   0   0   0   0   0   0   0   0   0   0   0   0   0   
0   0   0   0   0   0   0   0   0   0   0   0   0   0   0   0   0   0   0   0   
0   0   0   0   0   0   0   0   0   0   0   0   0   0   0   0   0   0   0   0   
0   0   0   0   0   0   0   0   0   0   0   0   0   0   0   0   0   0   0   0   
0   0   0   0   0   0   0   0   0   0   0   0   0   0   0   0   0   0   0   0   
0   0   0   0   0   0   0   0   0   0   0   0   0   0   0   0   0   0   0   0   
3   3   3   3   3   3   3   3   3   3   3   3   3   0   0   0   0   0   0   0   
3   3   3   3   3   3   3   3   3   3   3   3   3   0   0   0   0   0   0   0   
3   3   3   3   3   3   3   3   3   3   3   3   3   0   0   0   0   0   0   0   
3   3   3   3   3   3   3   3   3   3   3   3   3   0   0   0   0   0   0   0   
3   3   3   3   3   3   3   3   3   3   3   3   3   0   0   0   0   0   0   0   
3   3   3   3   3   3   3   3   3   3   3   3   3   0   0   0   0   0   0   0   
3   3   3   3   3   3   3   3   3   3   3   3   3   0   0   0   0   0   0   0   
3   3   3   3   3   3   3   3   3   3   3   3   3   0   0   0   0   0   0   0   
3   3   3   3   3   3   3   3   3   3   3   3   3   0   0   0   0   0   0   0   
3   3   3   3   3   3   3   3   3   3   3   3   3   0   0   0   0   0   0   0   
3   3   3   3   3   3   3   3   3   3   3   3   3   0   0   0   0   0   0   0   
3   3   3   3   3   3   3   3   3   3   3   3   3   0   0   0   0   0   0   0   
0   0   0   0   0   0   0   0   0   0   0   0   0   0   0   0   0   0   0   0   
0   0   0   0   0   0   0   0   0   0   0   0   0   0   0   0   0   0   0   0   
0   0   0   0   0   0   0   0   0   0   0   0   0   0   0   0   0   0   0   0   
0   0   0   0   0   0   0   0   0   0   0   0   0   0   0   0   0   0   0   0   
0   0   0   0   0   0   0   0   0   0   0   0   3   3   3   3   3   3   0   0   
0   0   0   0   0   0   0   3   3   3   3   3   3   3   3   3   3   3   3   3   
0   0   0   0   0   0   0   3   3   3   3   3   3   3   3   3   3   3   3   3   
0   0   0   0   0   0   0   3   3   3   3   3   3   3   3   3   3   3   3   3   
0   0   0   0   0   0   0   3   3   3   3   3   3   3   3   3   3   3   3   3   
0   0   0   0   0   0   0   3   3   3   3   3   3   3   3   3   3   3   3   3   

# 0: Fluid
# 3: Wall
